<svg version="1.1" id="Layer_1" xmlns="http://www.w3.org/2000/svg" xmlns:xlink="http://www.w3.org/1999/xlink" x="0px" y="0px"
	 width="100%" viewBox="0 0 592 170" enable-background="new 0 0 592 170" xml:space="preserve">
<path fill="#F58E4A" opacity="1.000000" stroke="none" 
	d="
M593.000000,169.000000 
	C593.000000,169.000000 593.000000,169.500000 592.531616,169.734039 
	C406.507812,169.978668 220.952469,169.989883 35.397129,169.986801 
	C34.105228,169.986771 32.813324,169.789841 31.385607,169.673813 
	C27.249189,145.857941 23.209032,122.261963 19.039652,98.688843 
	C15.212960,77.053238 11.183170,55.453522 7.369673,33.815643 
	C5.507952,23.252186 3.934885,12.637856 2.678578,2.038289 
	C113.888107,2.019851 224.650208,2.001387 335.412323,2.002376 
	C411.196869,2.003053 486.981384,2.030839 562.884583,2.431437 
	C563.287292,3.766543 563.672485,4.699184 563.840698,5.669448 
	C567.621948,27.475857 571.338196,49.293617 575.152588,71.094223 
	C579.364990,95.170631 583.619629,119.239883 587.947693,143.295731 
	C589.493713,151.888657 591.308105,160.433319 593.000000,169.000000 
M365.244049,55.862957 
	C363.769867,56.419899 362.295685,56.976841 360.167694,57.781437 
	C359.167694,58.369637 358.167694,58.957840 356.630585,59.752140 
	C355.750610,60.498466 354.870605,61.244793 353.375061,62.259838 
	C350.311798,67.167908 347.248535,72.075974 343.907959,77.629745 
	C343.647095,78.758026 343.386200,79.886307 342.910583,81.817505 
	C340.310120,99.880966 347.531555,114.773499 362.072815,121.335167 
	C376.190521,127.705719 396.460571,123.622185 405.741760,112.421608 
	C405.125763,111.520561 404.533051,110.537437 403.828888,109.641991 
	C398.235840,102.529945 397.445953,102.423210 389.300629,106.159554 
	C386.759888,107.324997 384.010773,108.228737 381.262024,108.713814 
	C370.977631,110.528763 363.200836,103.810890 363.340759,92.851357 
	C373.436981,92.851357 383.551178,92.851418 393.665375,92.851334 
	C407.145355,92.851227 407.723175,92.186066 405.957001,78.702690 
	C404.459656,67.272034 396.307709,57.891155 385.539032,55.398804 
	C384.690857,55.269501 383.842651,55.140194 382.264465,54.639420 
	C376.821442,55.033192 371.378387,55.426968 365.244049,55.862957 
M335.301697,94.330025 
	C335.380829,92.867973 335.459930,91.405930 335.731049,89.104286 
	C335.126801,84.000366 335.100403,78.745926 333.817017,73.818916 
	C328.607117,53.817684 309.177795,47.532333 293.011749,60.377239 
	C292.060150,61.133354 291.059784,61.828152 290.002808,62.610161 
	C286.530487,54.330006 283.958221,53.400673 271.309723,55.593807 
	C271.309723,85.189728 271.309723,114.815216 271.309723,144.507874 
	C278.025024,144.507874 284.265015,144.507874 291.023499,144.507874 
	C291.023499,136.127396 291.023499,128.070724 291.023499,120.083710 
	C295.528412,121.501717 299.500031,123.556114 303.616821,123.906837 
	C320.392395,125.336021 333.701691,112.854530 335.301697,94.330025 
M91.408791,28.506430 
	C82.437500,25.882086 73.429367,25.209730 64.403572,28.177505 
	C51.569988,32.397324 43.900871,42.565006 43.909912,55.237213 
	C43.919491,68.663025 50.277180,76.926689 64.099030,81.438698 
	C68.838402,82.985817 73.675766,84.270683 78.321861,86.056511 
	C84.978912,88.615295 87.185455,92.562798 85.940727,98.754677 
	C84.919510,103.834702 80.865356,106.322632 74.108574,106.437630 
	C67.434593,106.551224 61.890591,103.757423 56.468868,100.345436 
	C53.288120,98.343735 49.787502,97.398743 47.071140,100.863419 
	C44.539474,104.092514 42.541222,107.739799 40.077785,111.560280 
	C52.506134,122.077782 66.196121,126.221909 81.691238,123.131996 
	C99.078247,119.664833 108.747803,106.277832 106.928772,88.652863 
	C105.987907,79.536621 100.755295,73.315315 92.524246,69.797531 
	C85.347794,66.730446 77.899826,64.304161 70.670883,61.352188 
	C66.648621,59.709682 64.146439,56.732685 64.850883,51.998554 
	C65.571121,47.158356 68.798576,44.880558 73.303436,44.161285 
	C75.094803,43.875267 77.099350,43.534981 78.753250,44.043751 
	C83.316269,45.447422 87.658585,47.625492 92.265457,48.804768 
	C94.453453,49.364853 98.346130,49.199127 99.206497,47.883839 
	C101.649956,44.148384 105.789810,40.760788 104.383873,35.371666 
	C104.292336,35.020802 103.582710,34.831177 102.742416,34.068485 
	C99.169472,32.361855 95.596535,30.655222 91.408791,28.506430 
M549.334900,68.974098 
	C554.699097,66.814560 555.388611,64.922935 553.454285,57.208088 
	C552.237854,57.141232 550.935913,57.015465 549.633179,57.006897 
	C541.339111,56.952354 533.197876,56.711399 524.934265,54.726807 
	C519.264404,53.365124 512.607971,54.290928 506.796997,55.776402 
	C498.668396,57.854336 492.676178,63.108498 490.902313,71.958458 
	C489.080627,81.046890 492.585571,87.855614 499.911194,93.044960 
	C500.281372,93.307213 500.491608,93.795250 500.768280,94.167381 
	C491.139709,103.373421 490.636902,106.175385 496.790009,116.271667 
	C496.437866,116.576195 496.120178,116.975677 495.706543,117.189659 
	C490.573547,119.844955 487.221802,123.645020 487.755310,129.819305 
	C488.303131,136.159470 492.115753,140.261749 497.668243,142.494995 
	C502.102905,144.278671 506.821289,145.979233 511.523102,146.357590 
	C524.625244,147.412018 537.265808,145.896454 546.981079,135.599380 
	C552.061523,130.214600 553.543945,123.649551 551.413513,116.601433 
	C549.395447,109.924843 544.069580,106.920784 537.561462,106.022018 
	C531.968323,105.249619 526.309509,104.960709 520.684937,104.405296 
	C518.048889,104.145004 515.362854,103.991661 512.828735,103.309731 
	C511.915710,103.064041 510.737915,101.330162 510.854218,100.426453 
	C510.970825,99.520424 512.461304,98.294266 513.508423,98.109703 
	C515.609619,97.739357 517.819824,98.018814 519.983582,97.967598 
	C536.838013,97.568665 545.314026,89.181671 545.961121,72.555824 
	C546.006470,71.390167 547.621704,70.285614 549.334900,68.974098 
M180.042679,109.490807 
	C180.010071,98.835381 180.348175,88.163094 179.864777,77.528160 
	C178.962921,57.687012 160.594254,47.878880 143.399261,57.775459 
	C142.156586,58.490688 140.891907,59.167683 138.774429,60.340439 
	C138.774429,48.187077 138.774429,36.819782 138.774429,25.150097 
	C131.695831,25.150097 125.301361,25.150097 118.547035,25.150097 
	C118.547035,57.784801 118.547035,90.143288 118.547035,122.694901 
	C125.344337,122.694901 131.842819,122.694901 138.758698,122.694901 
	C138.758698,120.410751 138.758362,118.604172 138.758774,116.797592 
	C138.761658,103.977142 138.649323,91.154518 138.889938,78.338531 
	C138.926758,76.378273 140.105331,73.856873 141.602570,72.619865 
	C145.516174,69.386475 150.255203,67.949394 155.092987,70.412537 
	C159.674911,72.745399 159.642532,77.539749 159.713013,81.805283 
	C159.905502,93.457146 159.789520,105.114113 159.795364,116.769058 
	C159.796326,118.707504 159.795502,120.645958 159.795502,122.776672 
	C166.870987,122.776672 173.236298,122.776672 180.042709,122.776672 
	C180.042709,118.417793 180.042709,114.452370 180.042679,109.490807 
M254.757996,108.156998 
	C256.332458,102.103249 258.823242,96.116837 259.274109,89.980522 
	C260.015686,79.888596 257.390808,70.338539 249.515091,63.247749 
	C238.314041,53.163025 221.851440,51.011448 208.465210,57.595718 
	C194.232086,64.596550 189.364212,76.737091 190.087387,91.775909 
	C190.824829,107.111649 199.747284,118.746155 213.464478,122.486473 
	C230.529953,127.139786 245.717255,122.055763 254.757996,108.156998 
M476.203735,64.444817 
	C467.363708,51.720009 454.418793,50.756626 437.367920,61.554588 
	C433.581055,54.636417 428.385437,53.054443 418.450989,55.853729 
	C418.450989,78.055908 418.450989,100.285240 418.450989,122.842796 
	C425.166687,122.842796 431.563934,122.842796 438.409546,122.842796 
	C438.506042,120.844460 438.663727,119.058006 438.667084,117.271255 
	C438.690979,104.618713 438.672852,91.966110 438.690369,79.313553 
	C438.698029,73.777679 442.876831,69.839355 449.239563,69.310036 
	C455.109344,68.821732 458.285065,71.491577 459.203064,77.876823 
	C459.533051,80.171936 459.673340,82.511978 459.683350,84.832443 
	C459.732117,96.152962 459.613678,107.475548 459.824280,118.792358 
	C459.851440,120.252037 461.367188,122.865791 462.331696,122.932068 
	C468.059906,123.325722 473.828857,123.126488 480.004211,123.126488 
	C480.004211,120.754196 480.013733,119.120880 480.002716,117.487694 
	C479.908630,103.506821 480.010406,89.519737 479.574493,75.549461 
	C479.464783,72.032402 477.629730,68.569183 476.203735,64.444817 
z"/>
<path fill="#FFFFFF" opacity="1.000000" stroke="none" 
	d="
M2.231161,2.046552 
	C3.934885,12.637856 5.507952,23.252186 7.369673,33.815643 
	C11.183170,55.453522 15.212960,77.053238 19.039652,98.688843 
	C23.209032,122.261963 27.249189,145.857941 31.385607,169.673813 
	C32.813324,169.789841 34.105228,169.986771 35.397129,169.986801 
	C220.952469,169.989883 406.507812,169.978668 592.531616,169.984039 
	C592.833313,170.333328 592.684082,170.943802 592.497192,170.955551 
	C591.169128,171.039001 589.833313,171.000000 588.500000,171.000000 
	C392.666687,171.000000 196.833405,171.000000 1.000053,171.000000 
	C1.000000,114.333336 1.000000,57.666668 1.529299,1.267931 
	C2.116120,1.706092 2.173640,1.876322 2.231161,2.046552 
z"/>
<path fill="#FFFFFE" opacity="1.000000" stroke="none" 
	d="
M593.000000,168.531342 
	C591.308105,160.433319 589.493713,151.888657 587.947693,143.295731 
	C583.619629,119.239883 579.364990,95.170631 575.152588,71.094223 
	C571.338196,49.293617 567.621948,27.475857 563.840698,5.669448 
	C563.672485,4.699184 563.287292,3.766543 562.971252,2.176110 
	C562.959473,1.357234 562.979736,1.178617 563.000000,1.000000 
	C572.977844,1.000000 582.955750,1.000000 593.000000,1.000000 
	C593.000000,56.687546 593.000000,112.375114 593.000000,168.531342 
z"/>
<path fill="#F7A168" opacity="1.000000" stroke="none" 
	d="
M562.534973,1.000000 
	C562.979736,1.178617 562.959473,1.357234 562.852600,1.791178 
	C486.981384,2.030839 411.196869,2.003053 335.412323,2.002376 
	C224.650208,2.001387 113.888107,2.019851 2.678578,2.038289 
	C2.173640,1.876322 2.116120,1.706092 2.029299,1.267931 
	C188.689987,1.000000 375.379974,1.000000 562.534973,1.000000 
z"/>
<path fill="#F2F1E6" opacity="1.000000" stroke="none" 
	d="
M548.920898,69.063370 
	C547.621704,70.285614 546.006470,71.390167 545.961121,72.555824 
	C545.314026,89.181671 536.838013,97.568665 519.983582,97.967598 
	C517.819824,98.018814 515.609619,97.739357 513.508423,98.109703 
	C512.461304,98.294266 510.970825,99.520424 510.854218,100.426453 
	C510.737915,101.330162 511.915710,103.064041 512.828735,103.309731 
	C515.362854,103.991661 518.048889,104.145004 520.684937,104.405296 
	C526.309509,104.960709 531.968323,105.249619 537.561462,106.022018 
	C544.069580,106.920784 549.395447,109.924843 551.413513,116.601433 
	C553.543945,123.649551 552.061523,130.214600 546.981079,135.599380 
	C537.265808,145.896454 524.625244,147.412018 511.523102,146.357590 
	C506.821289,145.979233 502.102905,144.278671 497.668243,142.494995 
	C492.115753,140.261749 488.303131,136.159470 487.755310,129.819305 
	C487.221802,123.645020 490.573547,119.844955 495.706543,117.189659 
	C496.120178,116.975677 496.437866,116.576195 496.790009,116.271667 
	C490.636902,106.175385 491.139709,103.373421 500.768280,94.167381 
	C500.491608,93.795250 500.281372,93.307213 499.911194,93.044960 
	C492.585571,87.855614 489.080627,81.046890 490.902313,71.958458 
	C492.676178,63.108498 498.668396,57.854336 506.796997,55.776402 
	C512.607971,54.290928 519.264404,53.365124 524.934265,54.726807 
	C533.197876,56.711399 541.339111,56.952354 549.633179,57.006897 
	C550.935913,57.015465 552.237854,57.141232 553.454285,57.208088 
	C555.388611,64.922935 554.699097,66.814560 548.920898,69.063370 
M532.349731,122.979218 
	C525.562683,121.917213 518.777649,120.842262 511.987854,119.798088 
	C507.924255,119.173172 506.168091,121.881317 505.324860,125.050766 
	C504.433014,128.402908 506.611877,130.272232 509.549194,131.369568 
	C516.270081,133.880386 523.000916,133.047714 529.578674,131.018463 
	C533.118591,129.926422 534.450317,127.195175 532.349731,122.979218 
M521.915161,67.963943 
	C517.999695,67.758385 513.887085,66.731064 510.915558,70.536324 
	C507.884521,74.417809 508.456512,80.851143 512.061035,83.570366 
	C516.341064,86.799202 523.692993,85.963394 526.400452,81.940186 
	C529.648010,77.114326 528.140198,71.397530 521.915161,67.963943 
z"/>
<path fill="#F2F0E6" opacity="1.000000" stroke="none" 
	d="
M103.160599,34.566547 
	C103.582710,34.831177 104.292336,35.020802 104.383873,35.371666 
	C105.789810,40.760788 101.649956,44.148384 99.206497,47.883839 
	C98.346130,49.199127 94.453453,49.364853 92.265457,48.804768 
	C87.658585,47.625492 83.316269,45.447422 78.753250,44.043751 
	C77.099350,43.534981 75.094803,43.875267 73.303436,44.161285 
	C68.798576,44.880558 65.571121,47.158356 64.850883,51.998554 
	C64.146439,56.732685 66.648621,59.709682 70.670883,61.352188 
	C77.899826,64.304161 85.347794,66.730446 92.524246,69.797531 
	C100.755295,73.315315 105.987907,79.536621 106.928772,88.652863 
	C108.747803,106.277832 99.078247,119.664833 81.691238,123.131996 
	C66.196121,126.221909 52.506134,122.077782 40.077785,111.560280 
	C42.541222,107.739799 44.539474,104.092514 47.071140,100.863419 
	C49.787502,97.398743 53.288120,98.343735 56.468868,100.345436 
	C61.890591,103.757423 67.434593,106.551224 74.108574,106.437630 
	C80.865356,106.322632 84.919510,103.834702 85.940727,98.754677 
	C87.185455,92.562798 84.978912,88.615295 78.321861,86.056511 
	C73.675766,84.270683 68.838402,82.985817 64.099030,81.438698 
	C50.277180,76.926689 43.919491,68.663025 43.909912,55.237213 
	C43.900871,42.565006 51.569988,32.397324 64.403572,28.177505 
	C73.429367,25.209730 82.437500,25.882086 91.788925,29.109161 
	C92.405418,30.677250 92.428131,31.773001 92.921539,32.581474 
	C94.030670,34.398769 95.328171,37.451958 96.631081,37.494621 
	C98.773331,37.564754 100.980690,35.646481 103.160599,34.566547 
z"/>
<path fill="#F2F0E5" opacity="1.000000" stroke="none" 
	d="
M180.042694,109.988876 
	C180.042709,114.452370 180.042709,118.417793 180.042709,122.776672 
	C173.236298,122.776672 166.870987,122.776672 159.795502,122.776672 
	C159.795502,120.645958 159.796326,118.707504 159.795364,116.769058 
	C159.789520,105.114113 159.905502,93.457146 159.713013,81.805283 
	C159.642532,77.539749 159.674911,72.745399 155.092987,70.412537 
	C150.255203,67.949394 145.516174,69.386475 141.602570,72.619865 
	C140.105331,73.856873 138.926758,76.378273 138.889938,78.338531 
	C138.649323,91.154518 138.761658,103.977142 138.758774,116.797592 
	C138.758362,118.604172 138.758698,120.410751 138.758698,122.694901 
	C131.842819,122.694901 125.344337,122.694901 118.547035,122.694901 
	C118.547035,90.143288 118.547035,57.784801 118.547035,25.150097 
	C125.301361,25.150097 131.695831,25.150097 138.774429,25.150097 
	C138.774429,36.819782 138.774429,48.187077 138.774429,60.340439 
	C140.891907,59.167683 142.156586,58.490688 143.399261,57.775459 
	C160.594254,47.878880 178.962921,57.687012 179.864777,77.528160 
	C180.348175,88.163094 180.010071,98.835381 180.042694,109.988876 
z"/>
<path fill="#F2F1E7" opacity="1.000000" stroke="none" 
	d="
M335.020905,95.000168 
	C333.701691,112.854530 320.392395,125.336021 303.616821,123.906837 
	C299.500031,123.556114 295.528412,121.501717 291.023499,120.083710 
	C291.023499,128.070724 291.023499,136.127396 291.023499,144.507874 
	C284.265015,144.507874 278.025024,144.507874 271.309723,144.507874 
	C271.309723,114.815216 271.309723,85.189728 271.309723,55.593807 
	C283.958221,53.400673 286.530487,54.330006 290.002808,62.610161 
	C291.059784,61.828152 292.060150,61.133354 293.011749,60.377239 
	C309.177795,47.532333 328.607117,53.817684 333.817017,73.818916 
	C335.100403,78.745926 335.126801,84.000366 335.310425,89.566971 
	C328.766968,92.997406 328.827118,92.957886 324.882141,86.952789 
	C322.806854,83.793793 320.702423,80.596725 318.169312,77.819901 
	C316.905945,76.434975 314.648895,75.956459 312.601807,74.830383 
	C308.753876,69.449158 305.051727,67.916832 299.080383,70.128166 
	C292.390686,72.605515 290.570709,75.084885 290.964569,80.943726 
	C291.388184,87.245949 291.388000,93.620659 290.967896,99.923424 
	C290.534454,106.425751 293.915497,107.685730 298.261047,108.770851 
	C305.170746,110.496292 311.233704,107.264519 312.944366,100.238983 
	C314.301117,94.666855 314.207397,88.741562 315.105713,83.047928 
	C317.603973,85.535233 320.010132,87.767906 321.855621,90.394508 
	C327.011047,97.731979 326.919434,97.796349 335.020905,95.000168 
z"/>
<path fill="#F2F1E6" opacity="1.000000" stroke="none" 
	d="
M254.567581,108.473877 
	C245.717255,122.055763 230.529953,127.139786 213.464478,122.486473 
	C199.747284,118.746155 190.824829,107.111649 190.087387,91.775909 
	C189.364212,76.737091 194.232086,64.596550 208.465210,57.595718 
	C221.851440,51.011448 238.314041,53.163025 249.515091,63.247749 
	C257.390808,70.338539 260.015686,79.888596 259.274109,89.980522 
	C258.823242,96.116837 256.332458,102.103249 254.567581,108.473877 
M221.310196,69.363228 
	C216.908188,70.466324 213.956284,73.275314 212.657654,77.508629 
	C210.263748,85.312447 210.105118,93.219391 212.856003,100.974960 
	C214.920105,106.794327 218.612381,109.046066 225.123611,108.997589 
	C231.132492,108.952858 235.344147,106.627647 236.615433,100.778290 
	C237.893356,94.898415 238.271255,88.643494 237.896576,82.624321 
	C237.274857,72.636353 232.157211,68.674583 221.310196,69.363228 
z"/>
<path fill="#F2F0E6" opacity="1.000000" stroke="none" 
	d="
M476.395630,64.763016 
	C477.629730,68.569183 479.464783,72.032402 479.574493,75.549461 
	C480.010406,89.519737 479.908630,103.506821 480.002716,117.487694 
	C480.013733,119.120880 480.004211,120.754196 480.004211,123.126488 
	C473.828857,123.126488 468.059906,123.325722 462.331696,122.932068 
	C461.367188,122.865791 459.851440,120.252037 459.824280,118.792358 
	C459.613678,107.475548 459.732117,96.152962 459.683350,84.832443 
	C459.673340,82.511978 459.533051,80.171936 459.203064,77.876823 
	C458.285065,71.491577 455.109344,68.821732 449.239563,69.310036 
	C442.876831,69.839355 438.698029,73.777679 438.690369,79.313553 
	C438.672852,91.966110 438.690979,104.618713 438.667084,117.271255 
	C438.663727,119.058006 438.506042,120.844460 438.409546,122.842796 
	C431.563934,122.842796 425.166687,122.842796 418.450989,122.842796 
	C418.450989,100.285240 418.450989,78.055908 418.450989,55.853729 
	C428.385437,53.054443 433.581055,54.636417 437.367920,61.554588 
	C454.418793,50.756626 467.363708,51.720009 476.395630,64.763016 
z"/>
<path fill="#F2F1E6" opacity="1.000000" stroke="none" 
	d="
M357.167694,59.546043 
	C358.167694,58.957840 359.167694,58.369637 360.668732,57.986320 
	C362.500244,59.662029 363.721619,61.252552 365.180725,62.582211 
	C370.466034,67.398567 382.915161,65.706284 386.052673,55.797756 
	C396.307709,57.891155 404.459656,67.272034 405.957001,78.702690 
	C407.723175,92.186066 407.145355,92.851227 393.665375,92.851334 
	C383.551178,92.851418 373.436981,92.851357 363.340759,92.851357 
	C363.200836,103.810890 370.977631,110.528763 381.262024,108.713814 
	C384.010773,108.228737 386.759888,107.324997 389.300629,106.159554 
	C397.445953,102.423210 398.235840,102.529945 403.828888,109.641991 
	C404.533051,110.537437 405.125763,111.520561 405.741760,112.421608 
	C396.460571,123.622185 376.190521,127.705719 362.072815,121.335167 
	C347.531555,114.773499 340.310120,99.880966 343.405518,81.501534 
	C351.838898,83.010994 357.460144,80.847153 360.836823,74.666153 
	C363.381500,70.008141 361.977448,64.222122 357.167694,59.546043 
M366.036835,72.617523 
	C364.928345,75.129730 363.819855,77.641945 362.461426,80.720566 
	C371.446136,80.720566 379.513916,80.720566 387.813049,80.720566 
	C388.270844,75.562790 386.527740,71.765343 382.098145,69.407097 
	C377.111298,66.752182 371.294983,67.794510 366.036835,72.617523 
z"/>
<path fill="#EAE6DE" opacity="1.000000" stroke="none" 
	d="
M312.841370,75.067932 
	C314.648895,75.956459 316.905945,76.434975 318.169312,77.819901 
	C320.702423,80.596725 322.806854,83.793793 324.882141,86.952789 
	C328.827118,92.957886 328.766968,92.997406 335.214417,89.986771 
	C335.459930,91.405930 335.380829,92.867973 335.161316,94.665100 
	C326.919434,97.796349 327.011047,97.731979 321.855621,90.394508 
	C320.010132,87.767906 317.603973,85.535233 314.933167,82.727142 
	C313.888855,79.910324 313.365112,77.489128 312.841370,75.067932 
z"/>
<path fill="#F2F0E7" opacity="1.000000" stroke="none" 
	d="
M344.185303,76.984039 
	C347.248535,72.075974 350.311798,67.167908 353.966766,62.328011 
	C359.337769,68.725174 359.324188,73.336143 353.548767,76.502373 
	C351.081238,77.855141 347.345001,76.893829 344.185303,76.984039 
z"/>
<path fill="#E9E7E0" opacity="1.000000" stroke="none" 
	d="
M344.046631,77.306885 
	C347.345001,76.893829 351.081238,77.855141 353.548767,76.502373 
	C359.324188,73.336143 359.337769,68.725174 354.274536,62.193653 
	C354.870605,61.244793 355.750610,60.498466 356.899139,59.649094 
	C361.977448,64.222122 363.381500,70.008141 360.836823,74.666153 
	C357.460144,80.847153 351.838898,83.010994 343.512878,81.100075 
	C343.386200,79.886307 343.647095,78.758026 344.046631,77.306885 
z"/>
<path fill="#E9E7E1" opacity="1.000000" stroke="none" 
	d="
M385.795837,55.598282 
	C382.915161,65.706284 370.466034,67.398567 365.180725,62.582211 
	C363.721619,61.252552 362.500244,59.662029 360.995636,57.862488 
	C362.295685,56.976841 363.769867,56.419899 365.674866,56.193371 
	C369.215973,61.568790 372.473755,62.857281 377.154083,60.244831 
	C379.380920,59.001877 381.064697,56.786007 382.994476,55.010880 
	C383.842651,55.140194 384.690857,55.269501 385.795837,55.598282 
z"/>
<path fill="#F2EEE4" opacity="1.000000" stroke="none" 
	d="
M382.629456,54.825146 
	C381.064697,56.786007 379.380920,59.001877 377.154083,60.244831 
	C372.473755,62.857281 369.215973,61.568790 366.020508,56.172264 
	C371.378387,55.426968 376.821442,55.033192 382.629456,54.825146 
z"/>
<path fill="#E9E6DE" opacity="1.000000" stroke="none" 
	d="
M102.951508,34.317516 
	C100.980690,35.646481 98.773331,37.564754 96.631081,37.494621 
	C95.328171,37.451958 94.030670,34.398769 92.921539,32.581474 
	C92.428131,31.773001 92.405418,30.677250 92.096329,29.330240 
	C95.596535,30.655222 99.169472,32.361855 102.951508,34.317516 
z"/>
<path fill="#F5924F" opacity="1.000000" stroke="none" 
	d="
M532.596802,123.249786 
	C534.450317,127.195175 533.118591,129.926422 529.578674,131.018463 
	C523.000916,133.047714 516.270081,133.880386 509.549194,131.369568 
	C506.611877,130.272232 504.433014,128.402908 505.324860,125.050766 
	C506.168091,121.881317 507.924255,119.173172 511.987854,119.798088 
	C518.777649,120.842262 525.562683,121.917213 532.596802,123.249786 
z"/>
<path fill="#F5904C" opacity="1.000000" stroke="none" 
	d="
M522.332031,68.029785 
	C528.140198,71.397530 529.648010,77.114326 526.400452,81.940186 
	C523.692993,85.963394 516.341064,86.799202 512.061035,83.570366 
	C508.456512,80.851143 507.884521,74.417809 510.915558,70.536324 
	C513.887085,66.731064 517.999695,67.758385 522.332031,68.029785 
z"/>
<path fill="#F5904C" opacity="1.000000" stroke="none" 
	d="
M312.601837,74.830383 
	C313.365112,77.489128 313.888855,79.910324 314.585144,82.652306 
	C314.207397,88.741562 314.301117,94.666855 312.944366,100.238983 
	C311.233704,107.264519 305.170746,110.496292 298.261047,108.770851 
	C293.915497,107.685730 290.534454,106.425751 290.967896,99.923424 
	C291.388000,93.620659 291.388184,87.245949 290.964569,80.943726 
	C290.570709,75.084885 292.390686,72.605515 299.080383,70.128166 
	C305.051727,67.916832 308.753876,69.449158 312.601837,74.830383 
z"/>
<path fill="#F58F4B" opacity="1.000000" stroke="none" 
	d="
M221.709747,69.277817 
	C232.157211,68.674583 237.274857,72.636353 237.896576,82.624321 
	C238.271255,88.643494 237.893356,94.898415 236.615433,100.778290 
	C235.344147,106.627647 231.132492,108.952858 225.123611,108.997589 
	C218.612381,109.046066 214.920105,106.794327 212.856003,100.974960 
	C210.105118,93.219391 210.263748,85.312447 212.657654,77.508629 
	C213.956284,73.275314 216.908188,70.466324 221.709747,69.277817 
z"/>
<path fill="#F5904C" opacity="1.000000" stroke="none" 
	d="
M366.269714,72.326019 
	C371.294983,67.794510 377.111298,66.752182 382.098145,69.407097 
	C386.527740,71.765343 388.270844,75.562790 387.813049,80.720566 
	C379.513916,80.720566 371.446136,80.720566 362.461426,80.720566 
	C363.819855,77.641945 364.928345,75.129730 366.269714,72.326019 
z"/>
</svg>